<?xml version="1.0" encoding="utf-8"?>
<!-- Generator: Adobe Illustrator 15.1.0, SVG Export Plug-In . SVG Version: 6.00 Build 0)  -->
<!DOCTYPE svg PUBLIC "-//W3C//DTD SVG 1.1//EN" "http://www.w3.org/Graphics/SVG/1.1/DTD/svg11.dtd">
<svg version="1.1" id="Layer_1" xmlns="http://www.w3.org/2000/svg" xmlns:xlink="http://www.w3.org/1999/xlink" x="0px" y="0px"
	 width="99.998px" height="100px" viewBox="0 0 99.998 100" enable-background="new 0 0 99.998 100" xml:space="preserve">
<path fill="#010101" d="M83.999,71.808l-2.939-0.001l0.004-5.879l2.938,0.001c2.431,0,4.41-1.979,4.41-4.411V49.759
	c0-2.432-1.979-4.411-4.412-4.411H81.06v-5.879h2.939c5.675,0,10.291,4.617,10.291,10.29v11.759
	C94.29,67.191,89.674,71.808,83.999,71.808L83.999,71.808z"/>
<path fill="#010101" d="M0,92.65C0,96.713,3.262,100,7.294,100h85.409c4.032,0,7.295-3.287,7.295-7.35H0z"/>
<path fill="#010101" d="M42.542,10.74c3.299,9.899-5.228,12.54-5.228,12.54l-0.039,0.061c0.086-0.144,2.065-3.614-0.311-10.742
	C33.665,2.7,42.192,0.06,42.192,0.06L42.231,0C42.144,0.143,40.167,3.615,42.542,10.74z"/>
<path fill="#010101" d="M52.787,10.74c3.298,9.899-5.228,12.54-5.228,12.54l-0.039,0.061c0.085-0.144,2.064-3.614-0.311-10.742
	C43.909,2.7,52.438,0.06,52.438,0.06L52.478,0C52.39,0.143,50.412,3.615,52.787,10.74z"/>
<path fill="#010101" d="M63.032,10.74c3.299,9.899-5.227,12.54-5.227,12.54l-0.039,0.061c0.085-0.144,2.064-3.614-0.311-10.742
	C54.156,2.7,62.684,0.06,62.684,0.06L62.723,0C62.636,0.143,60.658,3.615,63.032,10.74z"/>
<path fill="#010101" d="M22.069,29.18v47.038c0,6.5,5.26,11.759,11.759,11.759h32.34c6.499,0,11.759-5.259,11.759-11.759V29.18
	H22.069z M69.107,74.748c0,0.811-0.659,1.47-1.47,1.47c-0.813,0-1.47-0.659-1.47-1.47V36.529c0-0.811,0.656-1.47,1.47-1.47
	c0.811,0,1.47,0.659,1.47,1.47V74.748z"/>
</svg>
