<svg xmlns="http://www.w3.org/2000/svg" xmlns:xlink="http://www.w3.org/1999/xlink" version="1.1" id="Layer_1" x="0px" y="0px" viewBox="0 0 100 100" enable-background="new 0 0 100 100" xml:space="preserve" height="100px" width="100px">
<g>
	<path d="M72.379,7.387c-0.041-0.021-0.084-0.037-0.128-0.046L60.439,4.872c-0.146-0.031-0.3,0.007-0.418,0.101   c-0.117,0.095-0.185,0.238-0.185,0.388c0,5.201-4.413,9.432-9.836,9.432s-9.836-4.231-9.836-9.432c0-0.15-0.068-0.293-0.185-0.388   c-0.117-0.094-0.269-0.132-0.418-0.101L27.749,7.341c-0.044,0.009-0.088,0.024-0.128,0.046c-9.224,4.803-9.974,13.93-9.974,24.484   v16.592c0,0.276,0.224,0.5,0.5,0.5H28.5v14.372h-0.778c-0.276,0-0.5,0.224-0.5,0.5v0.25h-4.157c-2.988,0-5.419,2.345-5.419,5.322   c0,2.882,2.431,5.227,5.419,5.227h20.874c3.066,0,5.561,2.388,5.561,5.324v2.959h-0.555c-0.276,0-0.5,0.224-0.5,0.5v0.455H48.16   c-1.225,0-2.221,0.966-2.221,2.154v4.345c0,0.742,0.619,1.346,1.38,1.346h0.787v2.922c0,0.276,0.224,0.5,0.5,0.5s0.5-0.224,0.5-0.5   v-2.922h1.789v2.922c0,0.276,0.224,0.5,0.5,0.5s0.5-0.224,0.5-0.5v-2.922h0.787c0.761,0,1.38-0.604,1.38-1.346v-4.345   c0-1.188-0.997-2.154-2.221-2.154h-0.286v-0.455c0-0.276-0.224-0.5-0.5-0.5H50.5v-2.959c0-3.487-2.943-6.324-6.561-6.324H23.065   c-2.437,0-4.419-1.896-4.419-4.322c0-2.331,1.982-4.227,4.419-4.227h4.157v0.251c0,0.276,0.224,0.5,0.5,0.5H28.5v2.999   c0,0.276,0.224,0.5,0.5,0.5h41.756c0.276,0,0.5-0.224,0.5-0.5V48.963h10.597c0.276,0,0.5-0.224,0.5-0.5V31.871   C82.354,21.317,81.603,12.19,72.379,7.387z M53.062,86.026v4.345c0,0.191-0.17,0.346-0.38,0.346h-5.363   c-0.209,0-0.38-0.155-0.38-0.346v-4.345c0-0.636,0.548-1.154,1.221-1.154h3.681C52.514,84.872,53.062,85.39,53.062,86.026z    M18.646,47.963V31.871c0-10.562,0.691-19.006,9.375-23.566l11.16-2.333c0.33,5.469,5.056,9.821,10.818,9.821   s10.488-4.352,10.818-9.821l11.16,2.333c0.323,0.169,0.612,0.355,0.913,0.535L29.5,54.53v-6.064c0-0.001,0-0.002,0-0.002V32.289   c0-0.276-0.224-0.5-0.5-0.5s-0.5,0.224-0.5,0.5v15.674H18.646z M81.354,47.963H71.25V32.289c0-0.276-0.224-0.5-0.5-0.5   s-0.5,0.224-0.5,0.5v16.174c0,0.012,0.006,0.022,0.007,0.034v19.838H29.5V55.982L73.757,9.381   c6.991,4.745,7.597,12.706,7.597,22.49V47.963z"/>
</g>
</svg>