<svg xmlns="http://www.w3.org/2000/svg" xmlns:xlink="http://www.w3.org/1999/xlink" version="1.1" id="Capa_1" x="0px" y="0px" width="90px" height="90px" viewBox="0 0 90 90" enable-background="new 0 0 90 90" xml:space="preserve">
<rect x="40.667" y="12.086" display="none" width="8.167" height="7.664"/>
<path fill="#000000" d="M45,31.73c-15.4,0-27.884,12.483-27.884,27.887c0,15.4,12.483,27.884,27.884,27.884  s27.884-12.483,27.884-27.884C72.884,44.214,60.4,31.73,45,31.73z M30.448,58.144c1.425-1.748,2.307-4.134,2.307-6.768  c0-2.745-0.958-5.218-2.489-6.98c1.282-1.015,2.857-1.621,4.567-1.621c4.287,0,7.763,3.77,7.763,8.42s-3.476,8.423-7.763,8.423  C33.205,59.617,31.696,59.072,30.448,58.144z M50.846,76.522c-1.333,4.235-5.031,6.844-8.261,5.828  c-3.229-1.017-4.765-5.274-3.432-9.511c1.335-4.235,5.033-6.845,8.262-5.827C50.644,68.029,52.181,72.287,50.846,76.522z   M56.047,59.617c-1.628,0-3.137-0.545-4.385-1.474c1.425-1.748,2.307-4.134,2.307-6.768c0-2.745-0.958-5.218-2.49-6.98  c1.283-1.015,2.858-1.621,4.568-1.621c4.287,0,7.764,3.77,7.764,8.42S60.334,59.617,56.047,59.617z"/>
<path fill="#000000" d="M48.028,2.664c-0.085-0.104-0.212-0.165-0.346-0.165h-5.365c-0.135,0-0.262,0.061-0.347,0.165  c-0.085,0.104-0.119,0.24-0.093,0.371l2.684,22.069c0.042,0.209,0.226,0.358,0.438,0.358s0.396-0.149,0.438-0.358l2.683-22.069  C48.147,2.904,48.114,2.768,48.028,2.664z"/>
<path fill="#000000" d="M31.9,8.534c-0.11-0.075-0.249-0.098-0.379-0.06l-5.148,1.508c-0.129,0.038-0.234,0.132-0.287,0.256  c-0.052,0.123-0.046,0.264,0.017,0.382l8.78,20.425c0.1,0.188,0.317,0.28,0.521,0.221c0.205-0.061,0.339-0.256,0.32-0.468  L32.094,8.865C32.081,8.731,32.012,8.61,31.9,8.534z"/>
<path fill="#000000" d="M58.101,8.534c0.11-0.075,0.248-0.098,0.377-0.06l5.15,1.508c0.128,0.038,0.233,0.132,0.286,0.256  c0.052,0.123,0.046,0.264-0.017,0.382l-8.78,20.425c-0.1,0.188-0.317,0.28-0.522,0.221c-0.204-0.061-0.337-0.256-0.319-0.468  l3.631-21.933C57.919,8.731,57.988,8.61,58.101,8.534z"/>
</svg>