<svg xmlns="http://www.w3.org/2000/svg" xmlns:xlink="http://www.w3.org/1999/xlink" version="1.1" id="&#1057;&#1083;&#1086;&#1081;_1" x="0px" y="0px" viewBox="0 0 90 90" enable-background="new 0 0 90 90" xml:space="preserve" height="100px" width="100px">
<g>
	<path fill="none" d="M75.5,41.4c-2.6,0-4.4,7.2-5.2,8.1c0,0-2.7-4.1-2.7-4.1c0.3-1.2,1.4-6.2,1.4-7.5c0-0.2,0-0.3,0-0.3h0   c0-14-10.8-7.8-23.8-7.8c-13,0-23.8-6.3-23.8,7.8h0c0,0,0,0.1,0,0.3c0,1.3,1.1,6.3,1.4,7.5c0,0-2.7,4.1-2.7,4.1   c-0.8-0.9-2.6-8.1-5.2-8.1c-2,0-2,6.1-0.9,10.8c2.8,12.9,5.8,8.3,7.4,6.9l1,6.6c1,7.9,16.1,16.9,22.8,16.9s21.8-9,22.8-16.9l1-6.6   c1.6,1.4,4.6,6,7.4-6.9C77.5,47.5,77.6,41.4,75.5,41.4z"/>
	<path fill="#000000" d="M44.4,85.8C44.4,85.9,44.4,85.8,44.4,85.8C44.4,85.8,44.4,85.8,44.4,85.8z"/>
	<path fill="#000000" d="M46.1,85.8C46.1,85.8,46.1,85.8,46.1,85.8C46,85.8,46,85.9,46.1,85.8z"/>
	<path fill="#000000" d="M76.5,38.6c-1-0.2-2.1,0.5-3.2,1.9c0-0.1,0-0.2,0-0.3c0.5-1.7,0.8-8.5,0.8-10.3c0-12.3-12.9-24.6-28.9-24.7   c-16,0.1-28.9,12.4-28.9,24.7c0,1.8,0.3,8.6,0.8,10.3c0,0.1,0,0.2,0,0.3c-1.1-1.4-2.2-2.2-3.2-1.9c-2.5,0.5-3.3,6.4-2,13.3   s4.5,12,6.9,11.5c0.1,0,1.3-1,1.4-1c0,1.2,0.1,2.5,0.4,4.2c2,9.4,18.8,18.7,24.5,19c5.7-0.2,22.4-9.6,24.5-19   c0.4-1.7,0.4-3,0.4-4.2c0.1,0,1.3,1,1.4,1c2.5,0.5,5.6-4.6,6.9-11.5C79.8,45,78.9,39.1,76.5,38.6z M76.5,52.2   c-2.8,12.9-5.8,8.3-7.4,6.9l-1,6.6c-1,7.9-16.1,16.9-22.8,16.9s-21.8-9-22.8-16.9l-1-6.6c-1.6,1.4-4.6,6-7.4-6.9   c-1-4.7-1.1-10.8,0.9-10.8c2.6,0,4.4,7.2,5.2,8.1c0,0,2.7-4.1,2.7-4.1c-0.3-1.2-1.4-6.2-1.4-7.5c0-0.2,0-0.3,0-0.3h0   c0-14,10.8-7.8,23.8-7.8c13,0,23.8-6.3,23.8,7.8h0c0,0,0,0.1,0,0.3c0,1.3-1.1,6.3-1.4,7.5c0,0,2.7,4.1,2.7,4.1   c0.8-0.9,2.6-8.1,5.2-8.1C77.6,41.4,77.5,47.5,76.5,52.2z"/>
</g>
<g>
	<path fill="#000000" d="M29.1,38.6c2.8-2,6.5-2.1,9.7-1.3c2.1,0.5,2.7-2.9,0.5-3.4c-4.2-1-8.8-0.6-12.3,2   C25.3,37.1,27.3,39.9,29.1,38.6L29.1,38.6z"/>
</g>
<g>
	<path fill="#000000" d="M62.2,36.8c-2.7-2.3-6.2-2.8-9.7-1.3c-2,0.8-2.7-2.8-0.6-3.4c4.2-1,8.8-0.6,12.3,2   C66.1,35.4,64,38.1,62.2,36.8L62.2,36.8z"/>
</g>
<path fill="#000000" d="M45.7,58c-9.5,0-13.1,5.8-13.1,5.8s2.8,13.9,13.6,13.9c10.8,0,13.4-13.5,13.4-13.5S55.2,58,45.7,58z   M46,76.4c-4.3,0-6-2.2-6-2.2s2.8-0.7,5.9-0.7c3.1,0,5.9,0.9,5.9,0.9S50.4,76.4,46,76.4z M46.1,63.6c-3.4,0-9.8-1.5-9.8-1.5  S42,60,45.9,60c4,0,9.3,2.7,9.3,2.7S49.5,63.6,46.1,63.6z"/>
<path fill="#000000" d="M33,61.1c0,0-1.7,0.6-1.8,2.3c-0.1,1.7,0.3,3.4,0.3,3.4s-2.6-1.7-1.9-3.6C30.3,61.3,33,61.1,33,61.1z"/>
<path fill="#000000" d="M59.6,61.4c0,0,1.6,0.9,1.5,2.6s-0.8,3.3-0.8,3.3s2.8-1.3,2.4-3.3C62.2,62,59.6,61.4,59.6,61.4z"/>
<g>
	<path fill="none" d="M39.1,46.5c0-1.8-1.5-3.3-3.3-3.3c-1.8,0-3.3,1.5-3.3,3.3c0,1.8,1.5,3.3,3.3,3.3   C37.6,49.8,39.1,48.4,39.1,46.5z M35.8,49c-1.3,0-2.4-1.1-2.4-2.4c0-1.3,1.1-2.4,2.4-2.4c1.3,0,2.4,1.1,2.4,2.4   C38.3,47.9,37.2,49,35.8,49z"/>
	<polygon fill="none" points="33.9,46 35.1,47.1 36.1,46.1 35,44.8  "/>
	<path fill="none" d="M35.8,41.5c-3.6,0-6.5,2-6.5,4.5c0,1.7,1.5,3.3,3.6,4c-1-0.8-1.6-2-1.6-3.4c0-2.4,2-4.4,4.4-4.4   c2.4,0,4.4,2,4.4,4.4c0,1.3-0.6,2.6-1.6,3.4c2.1-0.7,3.6-2.2,3.6-4C42.3,43.5,39.4,41.5,35.8,41.5z"/>
	<path fill="#000000" d="M35.8,44.8c-0.9,0-1.7,0.8-1.7,1.7c0,0.9,0.8,1.7,1.7,1.7c0.9,0,1.7-0.8,1.7-1.7   C37.5,45.6,36.8,44.8,35.8,44.8z M35.3,46.9l-0.8-0.8l0.8-0.8l0.8,0.9L35.3,46.9z"/>
	<path fill="#000000" d="M35.8,40c-4.4,0-7.9,2.6-7.9,5.9c0,3.2,3.6,5.9,7.9,5.9c4.4,0,7.9-2.6,7.9-5.9C43.7,42.7,40.2,40,35.8,40z    M32.5,46.5c0-1.8,1.5-3.3,3.3-3.3c1.8,0,3.3,1.5,3.3,3.3c0,1.8-1.5,3.3-3.3,3.3C34,49.8,32.5,48.4,32.5,46.5z M38.7,49.9   c1-0.8,1.6-2,1.6-3.4c0-2.4-2-4.4-4.4-4.4c-2.4,0-4.4,2-4.4,4.4c0,1.3,0.6,2.6,1.6,3.4c-2.1-0.7-3.6-2.2-3.6-4   c0-2.5,2.9-4.5,6.5-4.5s6.5,2,6.5,4.5C42.3,47.7,40.8,49.2,38.7,49.9z"/>
</g>
<g>
	<path fill="none" d="M55.9,49.7c1.8,0,3.3-1.5,3.3-3.3c0-1.8-1.5-3.3-3.3-3.3c-1.8,0-3.3,1.5-3.3,3.3C52.6,48.2,54,49.7,55.9,49.7z    M53.4,46.4c0-1.3,1.1-2.4,2.4-2.4c1.3,0,2.4,1.1,2.4,2.4c0,1.3-1.1,2.4-2.4,2.4C54.5,48.8,53.4,47.7,53.4,46.4z"/>
	<polygon fill="none" points="57.8,45.8 56.6,46.9 55.6,45.9 56.7,44.6  "/>
	<path fill="none" d="M55.9,41.3c3.6,0,6.5,2,6.5,4.5c0,1.7-1.5,3.3-3.6,4c1-0.8,1.6-2,1.6-3.4c0-2.4-2-4.4-4.4-4.4   c-2.4,0-4.4,2-4.4,4.4c0,1.3,0.6,2.6,1.6,3.4c-2.1-0.7-3.6-2.2-3.6-4C49.4,43.3,52.3,41.3,55.9,41.3z"/>
	<path fill="#000000" d="M54.2,46.4c0,0.9,0.8,1.7,1.7,1.7c0.9,0,1.7-0.8,1.7-1.7c0-0.9-0.8-1.7-1.7-1.7   C54.9,44.7,54.2,45.4,54.2,46.4z M55.7,46.1l0.8-0.9l0.8,0.8l-0.8,0.8L55.7,46.1z"/>
	<path fill="#000000" d="M48,45.8c0,3.2,3.6,5.9,7.9,5.9c4.4,0,7.9-2.6,7.9-5.9s-3.6-5.9-7.9-5.9C51.5,39.9,48,42.5,48,45.8z    M55.9,49.7c-1.8,0-3.3-1.5-3.3-3.3c0-1.8,1.5-3.3,3.3-3.3c1.8,0,3.3,1.5,3.3,3.3C59.2,48.2,57.7,49.7,55.9,49.7z M49.4,45.8   c0-2.5,2.9-4.5,6.5-4.5s6.5,2,6.5,4.5c0,1.7-1.5,3.3-3.6,4c1-0.8,1.6-2,1.6-3.4c0-2.4-2-4.4-4.4-4.4c-2.4,0-4.4,2-4.4,4.4   c0,1.3,0.6,2.6,1.6,3.4C50.9,49,49.4,47.5,49.4,45.8z"/>
</g>
</svg>