<svg xmlns="http://www.w3.org/2000/svg" xmlns:xlink="http://www.w3.org/1999/xlink" version="1.1" x="0px" y="0px" width="100px" height="92.316px" viewBox="0 0 100 92.316" enable-background="new 0 0 100 92.316" xml:space="preserve">
<g id="Layer_1">
	<circle cx="50.043" cy="7.499" r="7.445"/>
</g>
<g id="Layer_2_1_">
</g>
<g id="Layer_3">
	<g>
		<path d="M18.435,48.939v-2.116c-2.14-0.31-4.121-1.18-5.346-1.961l1.492-2.385c0.958,0.56,2.473,1.181,3.854,1.52v-3.793    l-0.934-0.335c-1.826-0.671-4.057-1.756-4.057-4.48c0-2.493,1.849-4.298,4.991-4.499v-2.03h2.343v2.144    c1.715,0.263,3.408,0.843,4.637,1.469l-1.494,2.429c-0.847-0.399-2.049-0.826-3.143-1.071v3.586    c0.264,0.092,0.557,0.176,0.848,0.29c1.849,0.673,4.299,1.741,4.299,4.636c0,2.607-2.028,4.391-5.146,4.593v2.004H18.435z     M18.435,36.685v-2.968c-0.845,0.159-1.491,0.625-1.491,1.448C16.944,35.923,17.519,36.349,18.435,36.685z M20.778,40.964v3.186    c0.912-0.174,1.649-0.67,1.649-1.559C22.427,41.803,21.778,41.359,20.778,40.964z"/>
	</g>
	<path d="M79.424,43.997v-3.793l-0.938-0.335c-1.824-0.671-4.055-1.756-4.055-4.48c0-2.493,1.85-4.298,4.992-4.499v-2.03h2.342   v2.144c1.713,0.263,3.406,0.843,4.637,1.469l-1.494,2.429c-0.848-0.399-2.051-0.826-3.143-1.071v3.586   c0.264,0.092,0.555,0.176,0.848,0.29c1.848,0.673,4.299,1.741,4.299,4.636c0,2.607-2.029,4.391-5.146,4.593v2.004h-2.342v-2.116   c-2.141-0.31-4.123-1.18-5.348-1.961l1.49-2.385C76.527,43.037,78.041,43.658,79.424,43.997z M79.424,33.717   c-0.846,0.159-1.494,0.625-1.494,1.448c0,0.758,0.578,1.185,1.494,1.52V33.717z M81.766,44.149c0.91-0.174,1.648-0.67,1.648-1.559   c0-0.787-0.648-1.231-1.648-1.627V44.149z"/>
	<path d="M83.633,23.96h3.643c4.762,0.013,4.762-7.369,0.004-7.369h-2.221l2.355-5.951H73.342l2.355,5.951H24.303l2.356-5.951   H12.587l2.356,5.951h-2.222c-4.76,0-4.76,7.382,0.003,7.369h3.643C9.509,25.54,4.374,31.684,4.374,39.016   c0,8.528,6.937,15.462,15.462,15.462c8.527,0,15.463-6.935,15.463-15.462c0-7.332-5.135-13.476-11.994-15.056l16.048,0.042   L39.33,87.875c0,2.449,1.989,4.441,4.44,4.441c2.455,0,4.441-1.992,4.441-4.441l-0.013-33.999h3.686v33.999   c0,2.449,1.99,4.441,4.449,4.441c2.449,0,4.439-1.992,4.439-4.441l-0.041-63.873l15.963-0.042   c-6.859,1.58-11.992,7.724-11.992,15.056c0,8.528,6.936,15.462,15.461,15.462c8.527,0,15.463-6.935,15.463-15.462   C95.627,31.684,90.492,25.54,83.633,23.96z M22.825,13.247l-1.317,3.337l-3.745,0.007l-1.342-3.344H22.825z M32.529,39.016   c0,6.999-5.694,12.694-12.693,12.694c-6.999,0-12.692-5.695-12.692-12.694c0-6.999,5.694-12.692,12.692-12.692   C26.835,26.323,32.529,32.017,32.529,39.016z M83.58,13.247l-1.344,3.344l-3.742-0.007l-1.318-3.337H83.58z M80.164,51.71   c-6.998,0-12.691-5.695-12.691-12.694c0-6.999,5.693-12.692,12.691-12.692s12.693,5.694,12.693,12.692   C92.857,46.015,87.162,51.71,80.164,51.71z"/>
</g>
</svg>